<svg xmlns="http://www.w3.org/2000/svg" viewBox="0 0 200 200" fill="none">
  <defs>
    <linearGradient id="g" x1="0" y1="0" x2="1" y2="1">
      <stop offset="0%" stop-color="#93C5FD"/>
      <stop offset="50%" stop-color="#3B82F6"/>
      <stop offset="100%" stop-color="#1D4ED8"/>
    </linearGradient>
  </defs>
  <rect width="200" height="200" rx="36" fill="#0B1220"/>
  <line x1="24" y1="90" x2="100" y2="18" stroke="url(#g)" stroke-width="7.5" stroke-linecap="round"/>
  <line x1="176" y1="90" x2="100" y2="18" stroke="url(#g)" stroke-width="7.5" stroke-linecap="round"/>
  <rect x="117" y="10" width="18" height="30" rx="2" fill="url(#g)"/>
  <polyline points="24,90 24,182 64,182" stroke="url(#g)" stroke-width="7.5" stroke-linecap="round" stroke-linejoin="round"/>
  <polyline points="176,90 176,182 136,182" stroke="url(#g)" stroke-width="7.5" stroke-linecap="round" stroke-linejoin="round"/>
  <path d="M80,148 L80,182 M120,148 L120,182 M80,148 L120,148" stroke="url(#g)" stroke-width="7" stroke-linecap="round" stroke-linejoin="round"/>
  <circle cx="92" cy="112" r="52" stroke="url(#g)" stroke-width="7.5" fill="rgba(59,130,246,0.10)"/>
  <rect x="64" y="84" width="23" height="23" rx="3.5" fill="url(#g)"/>
  <rect x="91" y="84" width="23" height="23" rx="3.5" fill="url(#g)"/>
  <rect x="64" y="111" width="23" height="23" rx="3.5" fill="url(#g)"/>
  <rect x="91" y="111" width="23" height="23" rx="3.5" fill="url(#g)"/>
  <line x1="134" y1="150" x2="170" y2="186" stroke="url(#g)" stroke-width="12" stroke-linecap="round"/>
</svg>
